<svg width="22" height="22" viewBox="0 0 22 22" fill="none" xmlns="http://www.w3.org/2000/svg">
<g clip-path="url(#clip0_1167_7244)">
<path d="M21.0645 10.8135C21.0645 12.165 20.7984 13.5033 20.2812 14.7519C19.764 16.0006 19.0059 17.1351 18.0502 18.0907C17.0946 19.0464 15.96 19.8045 14.7114 20.3217C13.4628 20.8389 12.1245 21.1051 10.773 21.1051C9.42149 21.1051 8.08322 20.8389 6.83459 20.3217C5.58596 19.8045 4.45143 19.0464 3.49577 18.0907C2.54011 17.1351 1.78204 16.0006 1.26484 14.7519C0.747644 13.5033 0.481445 12.165 0.481445 10.8135C0.481445 9.46202 0.747644 8.12375 1.26484 6.87512C1.78204 5.62649 2.54011 4.49196 3.49577 3.5363C4.45143 2.58064 5.58596 1.82257 6.83459 1.30537C8.08322 0.788171 9.42149 0.521973 10.773 0.521973C12.1245 0.521973 13.4628 0.788171 14.7114 1.30537C15.96 1.82257 17.0946 2.58064 18.0502 3.5363C19.0059 4.49196 19.764 5.62649 20.2812 6.87512C20.7984 8.12375 21.0645 9.46202 21.0645 10.8135Z" fill="url(#paint0_radial_1167_7244)"/>
<path d="M11.835 17.2262L16.1503 12.9041C16.7165 12.5364 17.0005 12.0157 17.0025 11.3422C17.0045 10.6473 16.7236 10.1034 16.1596 9.71034L11.8696 5.39511C11.4797 5.00363 11.035 4.80699 10.5355 4.80553C10.0136 4.80401 9.55682 4.99802 9.16465 5.3879C8.77282 5.77745 8.57615 6.23347 8.57462 6.7553C8.57323 7.23318 8.76727 7.67902 9.15743 8.09248L10.4894 9.4006L5.92688 9.38728C5.34017 9.38557 4.87787 9.57407 4.53998 9.95347C4.20208 10.3329 4.03223 10.7722 4.03077 11.2713C4.02925 11.7931 4.19649 12.2447 4.53216 12.6261C4.86784 13.0075 5.32903 13.1987 5.91574 13.2004L10.4783 13.2137L9.13866 14.513C8.74615 14.9029 8.54951 15.3479 8.54805 15.8478C8.54652 16.3689 8.74053 16.8258 9.13007 17.2183C9.51995 17.6104 9.97563 17.8075 10.4975 17.809C10.997 17.8104 11.4428 17.616 11.835 17.2262Z" fill="#EEEEEC"/>
<path opacity="0.64" d="M20.4989 11.66C20.5065 12.9169 20.2655 14.1629 19.7897 15.3262C19.314 16.4896 18.6129 17.5474 17.7269 18.4389C16.8408 19.3303 15.7872 20.0377 14.6267 20.5205C13.4662 21.0032 12.2217 21.2517 10.9649 21.2517C9.70798 21.2517 8.4635 21.0032 7.30301 20.5205C6.14253 20.0377 5.08894 19.3303 4.20287 18.4389C3.31681 17.5474 2.61574 16.4896 2.14 15.3262C1.66427 14.1629 1.42326 12.9169 1.43084 11.66C1.42326 10.4032 1.66427 9.15722 2.14 7.99385C2.61574 6.83047 3.31681 5.77264 4.20287 4.88122C5.08894 3.98979 6.14253 3.28236 7.30301 2.79962C8.4635 2.31688 9.70798 2.06836 10.9649 2.06836C12.2217 2.06836 13.4662 2.31688 14.6267 2.79962C15.7872 3.28236 16.8408 3.98979 17.7269 4.88122C18.6129 5.77264 19.314 6.83047 19.7897 7.99385C20.2655 9.15722 20.5065 10.4032 20.4989 11.66Z" fill="url(#paint1_radial_1167_7244)"/>
<path d="M4.66995 16.752C3.06422 15.4942 1.96131 13.7036 1.56053 11.7037C1.15975 9.70373 1.48752 7.62641 2.48462 5.84704C3.48173 4.06768 5.08239 2.70365 6.99738 2.00142C8.91238 1.29919 11.0154 1.30507 12.9264 2.01802L9.93886 10.0241L4.66995 16.752Z" fill="url(#paint2_radial_1167_7244)"/>
<path d="M2.03312 8.83899C2.25443 6.81128 3.19372 4.9296 4.68125 3.53396C6.16879 2.13832 8.10647 1.32077 10.1442 1.22904C12.1818 1.13731 14.1851 1.77745 15.7921 3.03379C17.399 4.29013 18.5035 6.07981 18.9061 8.07943L10.5285 9.76541L2.03312 8.83899Z" fill="url(#paint3_radial_1167_7244)"/>
<path opacity="0.5" d="M17.7852 5.57955C19.2273 7.02192 20.1059 8.93253 20.2624 10.9662C20.4188 12.9998 19.8426 15.0223 18.638 16.6682C17.4334 18.3141 15.6798 19.4749 13.6941 19.9408C11.7084 20.4067 9.62156 20.147 7.81062 19.2086L11.7428 11.622L17.7852 5.57955Z" fill="url(#paint4_radial_1167_7244)"/>
</g>
<defs>
<radialGradient id="paint0_radial_1167_7244" cx="0" cy="0" r="1" gradientUnits="userSpaceOnUse" gradientTransform="translate(10.7728 17.2295) scale(14.657 15.4597)">
<stop stop-color="#0A13EA"/>
<stop offset="0.33036" stop-color="#0C2CD6"/>
<stop offset="0.5" stop-color="#3D20EB"/>
<stop offset="0.875" stop-color="#0E16CA"/>
<stop offset="1" stop-color="#0B45B7"/>
</radialGradient>
<radialGradient id="paint1_radial_1167_7244" cx="0" cy="0" r="1" gradientUnits="userSpaceOnUse" gradientTransform="translate(10.965 18.1645) scale(9.5342)">
<stop stop-color="#EEEEEC"/>
<stop offset="1" stop-color="#EEEEEC" stop-opacity="0"/>
</radialGradient>
<radialGradient id="paint2_radial_1167_7244" cx="0" cy="0" r="1" gradientUnits="userSpaceOnUse" gradientTransform="translate(4.29451 5.85828) rotate(128.066) scale(8.34562 4.27279)">
<stop stop-color="#EEEEEC" stop-opacity="0.56"/>
<stop offset="1" stop-color="#EEEEEC" stop-opacity="0"/>
</radialGradient>
<radialGradient id="paint3_radial_1167_7244" cx="0" cy="0" r="1" gradientUnits="userSpaceOnUse" gradientTransform="translate(11.0895 2.77252) rotate(-173.776) scale(8.34586 4.27292)">
<stop stop-color="#EEEEEC" stop-opacity="0.5"/>
<stop offset="1" stop-color="#EEEEEC" stop-opacity="0"/>
</radialGradient>
<radialGradient id="paint4_radial_1167_7244" cx="0" cy="0" r="1" gradientUnits="userSpaceOnUse" gradientTransform="translate(16.8428 16.4386) rotate(-45) scale(8.34539 4.27267)">
<stop stop-color="#EEEEEC"/>
<stop offset="1" stop-color="#EEEEEC" stop-opacity="0"/>
</radialGradient>
<clipPath id="clip0_1167_7244">
<rect width="22" height="22" fill="white"/>
</clipPath>
</defs>
</svg>
